# xmcd
#
# Track frame offsets: 
#        150
#        39007
#        66644
#        95956
#        133578
#        166030
#
# Disc length: 2636 seconds
#
# Revision: 0
# Processed by: cddbd v1.5.2PL0 Copyright (c) Steve Scherf et al.
# Submitted via: ExactAudioCopy v1.0b3
#
DISCID=4d0a4a06
DTITLE=RISHI NITYAPRAGYA - TRINETRA
DYEAR=1900
DGENRE=
TTITLE0=OM NAMAHA SHIVAYA
TTITLE1=PARMESHWARAYA
TTITLE2=OM NAMAHA SHIYAYA NAMAHA OM
TTITLE3=SHIV RAJA MEHESWARA
TTITLE4=SHIAYA NAMAH SHIVA LINGYA NAMA OHM
TTITLE5=BHOLE KI JAI 
EXTD=
EXTT0=
EXTT1=
EXTT2=
EXTT3=
EXTT4=
EXTT5=
PLAYORDER=
